<?xml version="1.0" encoding="UTF-8" standalone="no"?>
<!-- Created with Inkscape (http://www.inkscape.org/) -->

<svg
   width="512mm"
   height="512mm"
   viewBox="0 0 512 512"
   version="1.1"
   id="svg1"
   inkscape:version="1.4.3 (0d15f75, 2025-12-25)"
   sodipodi:docname="ps.svg"
   xmlns:inkscape="http://www.inkscape.org/namespaces/inkscape"
   xmlns:sodipodi="http://sodipodi.sourceforge.net/DTD/sodipodi-0.dtd"
   xmlns="http://www.w3.org/2000/svg"
   xmlns:svg="http://www.w3.org/2000/svg">
  <sodipodi:namedview
     id="namedview1"
     pagecolor="#ffffff"
     bordercolor="#000000"
     borderopacity="0.25"
     inkscape:showpageshadow="2"
     inkscape:pageopacity="0.0"
     inkscape:pagecheckerboard="true"
     inkscape:deskcolor="#d1d1d1"
     inkscape:document-units="mm"
     inkscape:zoom="0.26415603"
     inkscape:cx="974.80265"
     inkscape:cy="883.94725"
     inkscape:window-width="1680"
     inkscape:window-height="850"
     inkscape:window-x="0"
     inkscape:window-y="31"
     inkscape:window-maximized="0"
     inkscape:current-layer="layer1" />
  <defs
     id="defs1" />
  <g
     inkscape:label="Layer 1"
     inkscape:groupmode="layer"
     id="layer1">
    <g
       id="g9"
       transform="matrix(7.1221855,0,0,7.1221855,126.2483,-352.96365)">
      <path
         d="M 80.875521,87.726005 V 195.41155 l -0.0101,105.10137 56.764639,0.16246 -0.0101,-38.16187 v -40.58358 l 98.98044,-0.36275 c 98.99467,-0.35339 98.98538,1.03937 109.01552,-4.70009 15.79059,-9.03554 26.08848,-20.46316 32.9263,-36.58879 3.02862,-7.14235 3.3997,-10.85978 3.43571,-25.40865 0.0401,-16.2137 0.0154,-16.22968 -5.40041,-27.16328 -6.36264,-12.84548 -17.50278,-25.67659 -27.60647,-31.717328 -13.98402,-8.360527 -9.62202,-8.263162 -145.21631,-8.263037 z m 58.034129,54.165175 190.86782,1.39046 v 25.79292 L 138.90965,167.6841 Z"
         fill="#c30032"
         id="path1"
         style="stroke-width:6.24139"
         transform="matrix(0.16431489,0,0,0.16431489,-25.095239,41.390996)" />
      <path
         d="m 48.243747,80.869968 v 17.25345 L 39.69734,97.2191 l -0.545261,5.15308 v 0 0 l -15.858713,-0.0581 c -15.8609919,-0.0566 -15.8595039,0.16653 -17.4665379,-0.75305 -2.52998,-1.44768 -4.179914,-3.278622 -5.27547495,-5.862282 -0.485247,-1.14435 -0.544701,-1.73996 -0.55047000184,-4.07099 -0.006428998,-2.59777 -0.002462998,-2.60033 0.86525500184,-4.35212 1.01943395,-2.05811 2.80431495,-4.11392 4.42313495,-5.08177 2.24053,-1.33953 1.541647,-1.32393 23.2666539,-1.32391 z m 0,8.90116 H 8.3645091 v 4.13256 l 39.8792379,4.21973 z"
         fill="#c30032"
         id="path2"
         sodipodi:nodetypes="ccccccccssccccccccc" />
      <path
         d="M 0.054056,93.696822 0,110.95028 l 0.101835,4.11685 8.989833,0.13191 v 0 0 l 15.858713,-0.0581 c 15.860992,-0.0566 15.859504,0.16653 17.466538,-0.75305 2.52998,-1.44768 4.179914,-3.27862 5.275475,-5.86228 0.485247,-1.14435 0.544701,-1.73996 0.55047,-4.07099 0.0064,-2.59777 0.0025,-2.60033 -0.865255,-4.35212 -1.019434,-2.058108 -2.804315,-4.113928 -4.423135,-5.081778 -2.24053,-1.33953 -1.541647,-1.32393 -23.266654,-1.32391 z m 0,0 39.825182,8.901168 v 4.13256 l -39.86601528,-6.6e-4 z"
         fill="#c30032"
         id="path2-2"
         sodipodi:nodetypes="ccccccccssccccccccc" />
    </g>
    <path
       style="fill:none;fill-opacity:0;stroke-width:0.275836"
       d="m 477.19208,1365.8029 0.002,-131.7117 0.1391,110.1965 c 0.0765,60.6081 0.0755,119.8784 -0.002,131.7118 -0.0777,11.8334 -0.1403,-37.7551 -0.13911,-110.1966 z"
       id="path3"
       transform="scale(0.26458333)" />
    <path
       style="fill:none;fill-opacity:0;stroke-width:0.275836"
       d="m 477.19208,1365.8029 0.002,-131.7117 0.1391,110.1965 c 0.0765,60.6081 0.0755,119.8784 -0.002,131.7118 -0.0777,11.8334 -0.1403,-37.7551 -0.13911,-110.1966 z"
       id="path4"
       transform="scale(0.26458333)" />
    <path
       style="fill:none;fill-opacity:0;stroke-width:0.275836"
       d="m 477.19208,1365.8029 0.002,-131.7117 0.1391,110.1965 c 0.0765,60.6081 0.0755,119.8784 -0.002,131.7118 -0.0777,11.8334 -0.1403,-37.7551 -0.13911,-110.1966 z"
       id="path5"
       transform="scale(0.26458333)" />
    <path
       style="fill:#000000;fill-opacity:0;stroke-width:0.275836"
       d="m 477.19208,1365.8029 0.002,-131.7117 0.1391,110.1965 c 0.0765,60.6081 0.0755,119.8784 -0.002,131.7118 -0.0777,11.8334 -0.1403,-37.7551 -0.13911,-110.1966 z"
       id="path6"
       transform="scale(0.26458333)" />
    <path
       style="fill:#000000;fill-opacity:0;stroke-width:0.409614"
       d="m 477.19234,1334.5218 0.003,-146.2322 0.20728,116.1256 c 0.114,63.869 0.11274,129.6734 -0.003,146.2321 -0.11554,16.5586 -0.20881,-35.6979 -0.20727,-116.1255 z"
       id="path7"
       transform="scale(0.26458333)" />
    <path
       style="fill:#000000;fill-opacity:0;stroke-width:0.409614"
       d="m 477.19234,1334.5218 0.003,-146.2322 0.20728,116.1256 c 0.114,63.869 0.11274,129.6734 -0.003,146.2321 -0.11554,16.5586 -0.20881,-35.6979 -0.20727,-116.1255 z"
       id="path8"
       transform="scale(0.26458333)" />
    <path
       style="fill:#000000;fill-opacity:0;stroke-width:0.409614"
       d="m 753.48459,1419.0749 c -46.73461,-0.68 -70.79367,-2.3216 -87.04293,-5.9394 -11.28326,-2.5122 -20.11068,-6.372 -36.45563,-15.9401 -62.75062,-36.7336 -105.75987,-83.9015 -134.19013,-147.1653 -16.41052,-36.5171 -18.38481,-49.8988 -18.38541,-124.6162 -2.2e-4,-27.819 0.37244,-41.7053 1.35209,-50.3825 l 0.48557,-4.3009 175.82673,-0.1029 175.82672,-0.1029 v 5.9399 5.9399 h -64.30937 -64.30936 v 53.045 53.045 h 64.30936 64.30937 v 115.511 115.5111 l -28.16095,-0.067 c -15.48852,-0.037 -37.65375,-0.2055 -49.25606,-0.3743 z"
       id="path9"
       transform="scale(0.26458333)" />
    <path
       style="fill:#000000;fill-opacity:0;stroke-width:0.409614"
       d="m 753.48459,1419.0749 c -46.73461,-0.68 -70.79367,-2.3216 -87.04293,-5.9394 -11.28326,-2.5122 -20.11068,-6.372 -36.45563,-15.9401 -62.75062,-36.7336 -105.75987,-83.9015 -134.19013,-147.1653 -16.41052,-36.5171 -18.38481,-49.8988 -18.38541,-124.6162 -2.2e-4,-27.819 0.37244,-41.7053 1.35209,-50.3825 l 0.48557,-4.3009 175.82673,-0.1029 175.82672,-0.1029 v 5.9399 5.9399 h -64.30937 -64.30936 v 53.045 53.045 h 64.30936 64.30937 v 115.511 115.5111 l -28.16095,-0.067 c -15.48852,-0.037 -37.65375,-0.2055 -49.25606,-0.3743 z"
       id="path10"
       transform="scale(0.26458333)" />
    <path
       style="fill:#000000;fill-opacity:0;stroke-width:0.409614"
       d="m 753.48459,1419.0749 c -46.73461,-0.68 -70.79367,-2.3216 -87.04293,-5.9394 -11.28326,-2.5122 -20.11068,-6.372 -36.45563,-15.9401 -62.75062,-36.7336 -105.75987,-83.9015 -134.19013,-147.1653 -16.41052,-36.5171 -18.38481,-49.8988 -18.38541,-124.6162 -2.2e-4,-27.819 0.37244,-41.7053 1.35209,-50.3825 l 0.48557,-4.3009 175.82673,-0.1029 175.82672,-0.1029 v 5.9399 5.9399 h -64.30937 -64.30936 v 53.045 53.045 h 64.30936 64.30937 v 115.511 115.5111 l -28.16095,-0.067 c -15.48852,-0.037 -37.65375,-0.2055 -49.25606,-0.3743 z"
       id="path11"
       transform="scale(0.26458333)" />
    <path
       style="fill:#000000;fill-opacity:0;stroke-width:0.108377"
       d="m 203.50164,374.4318 c -12.3652,-0.17991 -18.73082,-0.61425 -23.03011,-1.57146 -2.98536,-0.66469 -5.32095,-1.68593 -9.64555,-4.21749 -16.60277,-9.7191 -27.9823,-22.19894 -35.50447,-38.93748 -4.34195,-9.66182 -4.86432,-13.20239 -4.86447,-32.97137 -6e-5,-7.36045 0.0985,-11.03453 0.35774,-13.33037 l 0.12847,-1.13795 46.52082,-0.0272 46.52082,-0.0272 v 1.5716 1.5716 H 206.9697 189.95452 v 14.03482 14.03482 h 17.01518 17.01519 v 30.56229 30.56231 l -7.45092,-0.0177 c -4.098,-0.01 -9.96255,-0.0544 -13.03233,-0.099 z"
       id="path12" />
  </g>
</svg>
