<svg viewBox="0 0 512 512" xmlns="http://www.w3.org/2000/svg">
    <rect x="0" y="0" width="512" height="512" rx="115" ry="115" fill="#181822"/>
    <path
        transform="translate(256, 256) scale(7.5) translate(-22.125, -97.92)"
        d="M 0.001614283,80.869968 L 0.001614283,98.123418 L 0,114.96283 L 9.0948685,114.98886 L 9.0932543,108.87454 L 9.0932543,102.37221 L 24.951967,102.31409 C 40.812959,102.25747 40.811471,102.48062 42.418505,101.56104 C 44.948485,100.11336 46.598419,98.282418 47.69398,95.698758 C 48.179227,94.554408 48.238681,93.958798 48.24445,91.627768 C 48.250879,89.029998 48.246913,89.027438 47.379195,87.275648 C 46.359761,85.217538 44.57488,83.161728 42.95606,82.193878 C 40.71553,80.854348 41.414413,80.869948 19.689406,80.869968 L 0.001614283,80.869968 z M 9.2998824,89.548348 L 39.880852,89.771128 L 39.880852,93.903688 L 9.2998824,93.680908 L 9.2998824,89.548348 z"
        fill="#c30032" />
</svg>
