<svg class="patco-logo-svg" viewBox="0 80 250 35" xmlns="http://www.w3.org/2000/svg" aria-label="PATCO">
    <!-- T -->
    <path
        d="M 122.53266,89.575028 L 102.903,89.575028 L 102.903,80.690018 L 150.01423,80.690018 L 150.01423,89.575028 L 131.21105,89.575028 L 131.18827,114.98886 L 122.50933,114.98886 L 122.53266,89.575028 z"
        fill="#c30032" />
    <!-- P -->
    <path
        d="M 0.001614283,80.869968 L 0.001614283,98.123418 L 0,114.96283 L 9.0948685,114.98886 L 9.0932543,108.87454 L 9.0932543,102.37221 L 24.951967,102.31409 C 40.812959,102.25747 40.811471,102.48062 42.418505,101.56104 C 44.948485,100.11336 46.598419,98.282418 47.69398,95.698758 C 48.179227,94.554408 48.238681,93.958798 48.24445,91.627768 C 48.250879,89.029998 48.246913,89.027438 47.379195,87.275648 C 46.359761,85.217538 44.57488,83.161728 42.95606,82.193878 C 40.71553,80.854348 41.414413,80.869948 19.689406,80.869968 L 0.001614283,80.869968 z M 9.2998824,89.548348 L 39.880852,89.771128 L 39.880852,93.903688 L 9.2998824,93.680908 L 9.2998824,89.548348 z"
        fill="#c30032" />
    <!-- A -->
    <path
        d="M 76.558969,80.792698 C 61.299545,80.792698 61.26447,80.795838 59.796258,81.257608 C 56.675193,82.281118 54.242594,84.665408 52.564271,87.430618 C 51.969619,88.642868 51.971018,88.644538 51.9121,101.8171 L 51.853987,114.98965 L 60.751912,114.98965 L 60.751912,104.03836 L 91.539513,104.03836 L 91.572037,114.993 L 100.62781,114.993 L 100.58596,102.11414 C 100.52699,89.033868 100.52854,89.033868 99.765895,87.495198 C 98.245557,84.427838 95.614489,81.960158 93.011738,81.154298 C 91.951941,80.826148 90.50792,80.792668 76.558969,80.792698 z M 91.539513,89.574388 L 91.539513,95.153348 L 60.738998,95.153348 L 60.855227,89.677698 L 91.539513,89.574388 z"
        fill="#c30032" />
    <!-- C -->
    <path
        d="M 162.9285,114.85476 C 159.50501,114.44826 157.7533,113.63077 155.47077,111.3743 C 153.63189,109.55642 152.84368,108.20589 152.48469,106.25786 C 152.34616,105.50613 152.28836,102.04111 152.32788,96.856268 C 152.39045,88.645208 152.39045,88.645208 152.99149,87.405428 C 153.38678,86.590058 154.10127,85.670528 155.07873,84.719258 C 157.5224,82.341048 160.01814,81.079798 163.02638,80.702808 C 164.9088,80.466898 194.56212,80.388698 195.93733,80.616008 C 196.71221,80.744098 196.71221,80.744098 196.71221,85.055058 L 196.71221,89.366028 L 162.3086,89.471718 L 162.20066,106.31191 L 196.71221,106.31191 L 196.71221,110.51901 C 196.71221,114.7261 196.71221,114.7261 195.6274,114.8564 C 194.51823,114.98964 164.05145,114.9881 162.9285,114.85476 z"
        fill="#c30032" />
    <!-- O -->
    <path
        d="M 225.00196,80.527938 C 210.61793,80.593738 210.44043,80.598898 209.09803,81.050968 C 206.35322,81.975408 203.41961,84.422138 202.0856,86.894668 C 201.36238,88.235058 201.36238,88.231268 201.36238,97.632878 C 201.36238,107.03447 201.36068,107.03526 202.13726,108.66166 C 203.66433,111.85995 207.00843,114.2603 210.15616,114.7149 C 220.7419,115.08017 232.35517,115.05565 241.61318,114.7457 C 245.31559,114.45856 249.16791,109.74706 249.81026,106.41458 C 249.97331,105.56853 250.02953,102.64845 249.9846,97.219628 C 249.9103,88.248918 249.90138,88.210508 248.20888,85.725928 C 246.32396,82.958838 243.66435,81.098898 240.98335,80.682908 C 235.66348,80.429858 230.32809,80.506598 225.00196,80.527938 z M 210.14407,89.367768 L 240.82836,89.471078 L 240.93817,106.31127 L 210.14407,106.31127 L 210.14407,89.367768 z"
        fill="#c30032" />
</svg>
