<?xml version="1.0" encoding="UTF-8" standalone="no"?>
<svg
   viewBox="0 0 512 512"
   version="1.1"
   id="svg1"
   sodipodi:docname="patcoschedule-icon.svg"
   inkscape:version="1.4.3 (0d15f75, 2025-12-25)"
   xmlns:inkscape="http://www.inkscape.org/namespaces/inkscape"
   xmlns:sodipodi="http://sodipodi.sourceforge.net/DTD/sodipodi-0.dtd"
   xmlns="http://www.w3.org/2000/svg"
   xmlns:svg="http://www.w3.org/2000/svg">
  <defs
     id="defs1" />
  <sodipodi:namedview
     id="namedview1"
     pagecolor="#ffffff"
     bordercolor="#000000"
     borderopacity="0.25"
     inkscape:showpageshadow="2"
     inkscape:pageopacity="0.0"
     inkscape:pagecheckerboard="0"
     inkscape:deskcolor="#d1d1d1"
     inkscape:zoom="0.75142126"
     inkscape:cx="419.87101"
     inkscape:cy="185.64819"
     inkscape:window-width="1680"
     inkscape:window-height="850"
     inkscape:window-x="0"
     inkscape:window-y="31"
     inkscape:window-maximized="0"
     inkscape:current-layer="g1" />
  <rect
     x="0"
     y="0"
     width="512"
     height="512"
     rx="115"
     ry="115"
     fill="#181822"
     id="rect1"
     style="display:inline;fill:#181822;fill-opacity:1" />
  <g
     id="g2"
     transform="translate(-7.5987522,-12.456261)">
    <g
       id="g1"
       transform="matrix(6.0858756,0,0,6.0858756,152.7265,-251.90045)">
      <g
         id="g9">
        <path
           d="M 80.875521,87.726005 V 195.41155 l -0.0101,105.10137 56.764639,0.16246 -0.0101,-38.16187 v -40.58358 l 98.98044,-0.36275 c 98.99467,-0.35339 98.98538,1.03937 109.01552,-4.70009 15.79059,-9.03554 26.08848,-20.46316 32.9263,-36.58879 3.02862,-7.14235 3.3997,-10.85978 3.43571,-25.40865 0.0401,-16.2137 0.0154,-16.22968 -5.40041,-27.16328 -6.36264,-12.84548 -17.50278,-25.67659 -27.60647,-31.717328 -13.98402,-8.360527 -9.62202,-8.263162 -145.21631,-8.263037 z m 58.034129,54.165175 190.86782,1.39046 v 25.79292 L 138.90965,167.6841 Z"
           fill="#c30032"
           id="path1"
           style="stroke-width:6.24139"
           transform="matrix(0.16431489,0,0,0.16431489,-25.095239,41.390996)" />
        <path
           d="m 48.243747,80.869968 v 17.25345 L 39.69734,97.2191 l -0.545261,5.15308 v 0 0 l -15.858713,-0.0581 c -15.8609919,-0.0566 -15.8595039,0.16653 -17.4665379,-0.75305 -2.52998,-1.44768 -4.179914,-3.278622 -5.27547495,-5.862282 -0.485247,-1.14435 -0.544701,-1.73996 -0.55047000184,-4.07099 -0.006428998,-2.59777 -0.002462998,-2.60033 0.86525500184,-4.35212 1.01943395,-2.05811 2.80431495,-4.11392 4.42313495,-5.08177 2.24053,-1.33953 1.541647,-1.32393 23.2666539,-1.32391 z m 0,8.90116 H 8.3645091 v 4.13256 l 39.8792379,4.21973 z"
           fill="#c30032"
           id="path2"
           sodipodi:nodetypes="ccccccccssccccccccc" />
        <path
           d="m 0,93.696822 v 17.253458 l 0.101835,4.11685 8.989833,0.13191 v 0 0 l 15.858713,-0.0581 c 15.860992,-0.0566 15.859504,0.16653 17.466538,-0.75305 2.52998,-1.44768 4.179914,-3.27862 5.275475,-5.86228 0.485247,-1.14435 0.544701,-1.73996 0.55047,-4.07099 0.0064,-2.59777 0.0025,-2.60033 -0.865255,-4.35212 -1.019434,-2.058108 -2.804315,-4.113928 -4.423135,-5.081778 -2.24053,-1.33953 -1.541647,-1.32393 -23.266654,-1.32391 z m 0.054056,0 39.825182,8.901168 v 4.13256 H 0 Z"
           fill="#c30032"
           id="path2-2"
           sodipodi:nodetypes="ccccccccssccccccccc" />
      </g>
      <path
         style="fill:#181822;fill-opacity:1;stroke-width:0.384385"
         d="M 77.453533,505.52034 C 55.545803,497.81116 37.139754,484.40198 23.297408,466.06655 10.256242,448.79234 2.6042219,428.71097 0.59454862,406.48691 0.15803838,401.65974 -2.8217687e-4,110.03155 0.43243288,107.86798 l 0.24024049,-1.2012 H 36.948987 73.225301 v 90.65252 90.65253 l 13.549563,0.25388 c 7.45226,0.13964 20.252276,0.25415 28.444476,0.25448 l 14.89491,5.9e-4 v -39.33611 -39.3361 l 33.50504,-0.25553 c 18.42778,-0.14054 57.9089,-0.26079 87.73583,-0.26722 55.97002,-0.0121 71.7505,-0.28053 77.60292,-1.32022 3.76976,-0.66969 7.10161,-2.04888 11.4109,-4.72341 13.64101,-8.46622 22.49921,-18.13049 28.98188,-31.61916 4.66133,-9.69897 5.46223,-14.85861 5.12988,-33.04859 -0.15038,-8.23044 -0.33528,-11.08552 -0.8342,-12.88062 -0.91517,-3.29277 -4.18268,-10.33531 -6.96655,-15.01516 l -2.38651,-4.01188 h 73.51494 73.51498 l 0.23828,1.44144 c 0.42563,2.57508 0.27472,293.15277 -0.15487,298.18649 -1.88433,22.07982 -9.61685,42.43721 -22.70365,59.77184 -13.27338,17.58177 -30.35118,30.32315 -51.84982,38.68398 l -4.80481,1.86861 -175.47165,0.0931 -175.471651,0.0931 z M 384.60588,436.06755 c 11.62249,-0.54777 14.35043,-1.27609 21.49664,-5.73927 12.565,-7.8475 20.91607,-16.91 27.28294,-29.60715 4.93293,-9.83755 5.19758,-11.34467 5.19758,-29.59762 0,-16.81337 0.16951,-15.81893 -4.22793,-24.80374 -7.47436,-15.27157 -18.08319,-27.13158 -30.7153,-34.33781 -10.51197,-5.99674 -14.34728,-6.18022 -129.47736,-6.19432 l -77.93402,-0.01 v -11.72373 -11.72374 h 121.2734 121.2734 v -27.31186 -27.31187 l -113.48961,0.15046 c -115.83677,0.15356 -120.72409,0.21462 -131.27212,1.63991 -5.50686,0.74411 -8.68147,1.7157 -12.77608,3.91012 -13.24095,7.09622 -24.33112,19.40574 -32.12937,35.66197 -4.24081,8.84037 -3.80809,1.91119 -3.81676,61.11718 -0.007,48.89861 0.004,49.78552 0.19438,15.37539 0.11109,-20.08411 0.24392,-36.02315 0.29517,-35.4201 0.17238,2.0283 2.3499,7.84947 4.66037,12.45857 6.44118,12.84934 14.94068,22.0087 27.72114,29.87325 7.24523,4.45841 9.64316,5.05417 22.40199,5.56575 4.90895,0.19682 47.58486,0.45259 94.83536,0.56837 79.09367,0.1938 86.16161,0.2627 89.08118,0.86843 l 3.17117,0.65793 v 12.41362 12.41362 H 266.32349 144.99493 l 0.19276,25.37886 c 0.10601,13.95837 0.27873,25.46484 0.38382,25.56993 0.8546,0.8546 221.16334,0.99967 239.03437,0.1574 z"
         id="path3"
         transform="matrix(0.16431489,0,0,0.16431489,-23.84665,43.437745)" />
      <path
         style="fill:#181822;fill-opacity:1;stroke-width:0.384385"
         d="M 75.205374,504.7036 C 50.957152,495.52122 31.28661,479.54857 17.682435,457.99447 14.30567,452.64441 9.5434438,442.89393 7.1691567,436.46892 4.9130483,430.36371 2.4736076,420.75981 1.2621973,413.21364 L 0.39830631,407.83225 0.27787372,258.88315 C 0.2116358,176.96114 0.2623453,109.19891 0.39056154,108.30041 l 0.23312037,-1.63363 H 36.924491 73.225301 v 90.65248 90.65249 l 13.90071,0.25451 c 7.645391,0.13999 20.445399,0.25452 28.444479,0.25452 h 14.54376 V 249.08134 209.6819 l 10.66668,-0.0352 c 122.51915,-0.40368 180.39197,-0.74995 183.83202,-1.09991 7.2693,-0.73953 10.77858,-2.04602 17.737,-6.60343 13.14505,-8.60933 21.8695,-18.75918 28.07119,-32.65748 3.43934,-7.70771 4.1501,-12.44262 4.14908,-27.64014 -6.9e-4,-10.30449 -0.42036,-14.85047 -1.67991,-18.19678 -1.20006,-3.18826 -5.52642,-11.85836 -7.3036,-14.63654 l -1.37258,-2.14569 h 73.55685 73.55687 l 0.24025,1.2012 c 0.42697,2.13479 0.26949,293.37832 -0.16133,298.42673 -1.0167,11.91311 -3.56163,22.74181 -7.8594,33.44148 -12.35636,30.76244 -36.77859,54.18945 -68.35964,65.57404 l -4.16408,1.5011 -175.15143,-0.01 -175.151416,-0.01 z M 383.52369,436.06801 c 13.12281,-0.54409 15.77095,-1.29904 24.35004,-6.94187 6.23103,-4.0984 10.62547,-7.83902 15.26818,-12.99649 6.41946,-7.13114 12.87866,-18.99761 14.68231,-26.97329 0.95197,-4.20967 1.27793,-27.56394 0.45119,-32.33033 -1.35872,-7.83387 -9.57771,-22.10397 -18.28495,-31.7471 -7.26245,-8.04303 -17.51753,-14.83275 -25.0351,-16.57529 -9.90344,-2.29559 -14.73176,-2.40878 -111.1833,-2.60646 l -87.54363,-0.17943 v -11.69356 -11.69357 h 121.2734 121.2734 v -27.32137 -27.32136 l -113.48961,0.16923 c -80.42623,0.11992 -115.39334,0.29911 -120.02415,0.61504 -14.17054,0.96678 -18.95746,2.01259 -24.98501,5.45853 -12.76927,7.30018 -23.13006,18.87326 -30.76961,34.36989 -4.59308,9.31695 -4.16907,3.91093 -4.20578,53.62167 -0.0272,36.87075 -9.8e-4,39.10822 0.17816,15.1832 0.11555,-15.43305 0.25165,-27.60649 0.30244,-27.05209 0.31771,3.4677 4.98732,14.04049 8.75202,19.81605 3.17945,4.87771 5.73055,7.91749 10.42771,12.42524 4.60736,4.42155 8.50261,7.35105 14.58687,10.97034 4.38408,2.60792 7.79156,3.77673 12.83631,4.403 2.13145,0.26461 35.47105,0.5327 95.90401,0.7712 83.43706,0.32928 92.97074,0.4285 96.00009,0.99906 l 3.36337,0.63347 v 12.44482 12.44482 H 266.32251 144.99298 l 0.19761,25.38274 c 0.10868,13.9605 0.29876,25.48389 0.42239,25.60752 0.12363,0.12363 11.95188,0.30432 26.28499,0.40151 14.3331,0.0972 26.23317,0.2379 26.44458,0.31266 0.8651,0.30592 177.10662,-0.263 185.18114,-0.59778 z"
         id="path4"
         transform="matrix(0.16431489,0,0,0.16431489,-23.84665,43.437745)" />
      <path
         style="fill:#181822;fill-opacity:1;stroke-width:0.384385"
         d="M 75.205374,504.7036 C 51.68984,495.79867 32.765651,480.78211 19.164314,460.23433 9.8770187,446.20386 4.230271,431.39535 1.2344884,413.21364 l -0.82335121,-4.997 -0.12708133,-149.1413 C 0.21416113,177.04763 0.26198367,109.19891 0.39032822,108.30041 l 0.23335369,-1.63363 H 36.924491 73.225301 v 90.71481 90.7148 l 2.210212,6.2e-4 c 1.215617,3.4e-4 14.01563,0.11507 28.444477,0.25496 l 26.23426,0.25434 v -39.45538 -39.45538 l 19.89191,-0.10292 c 10.94055,-0.0566 45.31897,-0.15776 76.39648,-0.22479 61.75696,-0.1332 97.31844,-0.55513 101.43835,-1.20355 4.01768,-0.63232 7.6308,-2.04245 12.02657,-4.69375 13.33143,-8.0408 22.96224,-18.43154 29.33576,-31.65054 4.64933,-9.64293 5.17662,-12.65421 5.18274,-29.59763 0.004,-11.20511 -0.0931,-13.48549 -0.68096,-15.98867 -0.70913,-3.01942 -4.95116,-12.16119 -7.87564,-16.97233 l -1.57715,-2.59459 h 73.56226 73.56229 l 0.23333,1.63363 c 0.12834,0.8985 0.17885,68.66073 0.1122,150.58274 l -0.12112,148.9491 -0.86341,5.38139 c -2.84494,17.73169 -8.80272,33.35858 -17.9781,47.15533 -13.91096,20.91753 -33.65112,36.33277 -57.5575,44.94715 l -4.14955,1.49521 -175.16595,-0.01 -175.165956,-0.01 z M 380.73313,436.05981 c 15.29693,-0.48959 17.61858,-1.00637 24.96967,-5.55795 8.43836,-5.22478 16.74284,-12.76659 21.59454,-19.61133 4.25053,-5.99666 8.36506,-14.11927 9.98713,-19.71588 1.10833,-3.82409 1.58866,-12.0613 1.39347,-23.89499 -0.20372,-12.34886 -0.26688,-12.64753 -4.47047,-21.14116 -7.29117,-14.73222 -17.59172,-26.41531 -29.48074,-33.43763 -7.36566,-4.35056 -11.52335,-5.28125 -27.64526,-6.18833 -4.55007,-0.25601 -40.01614,-0.48809 -94.07818,-0.61561 l -86.77486,-0.2047 v -11.6808 -11.68081 h 121.2734 121.2734 V 255.0393 227.74798 l -94.07818,0.0205 c -94.76205,0.0207 -136.53993,0.34743 -145.39354,1.13721 -5.93015,0.52899 -11.67059,1.65527 -14.69013,2.88222 -1.25801,0.51118 -3.78631,1.82884 -5.61842,2.92813 -12.32788,7.39689 -22.39906,19.04204 -30.09492,34.7983 -3.73579,7.64854 -3.51563,4.87769 -3.58383,45.10459 -0.043,25.37893 -4.4e-4,29.49949 0.15299,14.79994 0.18655,-17.87242 0.27285,-20.07947 0.70355,-17.9924 0.88613,4.29391 4.16277,11.63044 7.84851,17.57307 5.30317,8.55047 12.98454,16.23525 22.21916,22.22903 6.78127,4.40141 10.37553,5.76752 16.95024,6.44242 2.09334,0.21489 42.35566,0.53288 95.6745,0.75563 82.6411,0.34525 92.40428,0.44908 95.42352,1.01484 l 3.36337,0.63025 v 12.44482 12.44482 h -121.3328 -121.3328 l 0.21577,25.39763 c 0.11868,13.9687 0.29814,25.48001 0.39882,25.58069 0.8051,0.8051 210.38509,0.91217 235.13209,0.12013 z"
         id="path5"
         transform="matrix(0.16431489,0,0,0.16431489,-23.84665,43.437745)" />
      <path
         style="fill:#181822;fill-opacity:1;stroke-width:0.384385"
         d="m 77.261341,505.50692 c -8.000262,-2.92778 -13.50747,-5.48351 -20.372393,-9.45421 -18.583525,-10.74877 -34.62761,-27.84529 -44.322624,-47.23 C 6.7243266,437.14192 3.7234493,427.76128 1.2364185,413.40583 L 0.40400236,408.60102 0.28025664,259.26753 C 0.2121965,177.13412 0.26162443,109.19891 0.39009643,108.30041 l 0.23358548,-1.63363 H 36.924491 73.225301 v 90.65196 90.65197 l 19.891912,0.25463 c 10.940557,0.14004 23.740567,0.25481 28.444477,0.25503 l 8.55256,4.1e-4 V 249.08134 209.6819 l 3.93994,-0.0159 c 143.76671,-0.5786 183.33119,-0.81016 188.06026,-1.10067 7.05232,-0.43323 10.11833,-1.11615 14.15962,-3.15391 9.39748,-4.73856 19.4325,-13.16373 25.62229,-21.51189 4.93805,-6.65996 9.52727,-15.74626 11.15616,-22.08836 2.00781,-7.81746 2.03516,-31.52059 0.0433,-37.50178 -1.00504,-3.01791 -5.12897,-11.53161 -7.28908,-15.04806 l -1.59383,-2.59459 h 73.58198 73.58201 l 0.23333,1.63363 c 0.12834,0.8985 0.17939,68.74722 0.11343,150.77493 l -0.11989,149.1413 -1.04807,6.10681 c -1.83728,10.70548 -4.49834,19.91233 -8.20465,28.38681 -12.99405,29.71097 -37.10585,52.03877 -67.93075,62.90468 l -3.394,1.19639 -175.15272,-0.0192 -175.152736,-0.0192 z M 390.29266,435.74774 c 7.30908,-0.79724 11.16915,-2.30937 18.39212,-7.20482 11.21043,-7.598 19.49196,-17.09355 25.07938,-28.75591 4.4968,-9.38596 4.79923,-11.18814 4.81026,-28.6635 0.0101,-16.00506 0.0544,-15.73823 -3.99606,-24.0768 -4.54723,-9.36124 -9.101,-16.00756 -15.59895,-22.76699 -5.93886,-6.17785 -11.05663,-10.08908 -17.29731,-13.21935 -5.65473,-2.83638 -11.33055,-3.8417 -25.56159,-4.52755 -4.80069,-0.23137 -44.2292,-0.49586 -94.07818,-0.63109 l -85.8139,-0.23279 v -11.66916 -11.66916 h 121.2734 121.2734 V 255.0393 227.74798 l -86.0061,0.0227 c -91.03455,0.0241 -145.27605,0.42164 -152.88904,1.12056 -10.06533,0.92406 -14.49843,2.14346 -20.43666,5.62142 -9.31057,5.4531 -17.24615,13.25991 -24.18632,23.79386 -2.88465,4.3784 -8.193,14.60413 -8.97931,17.29732 -0.74814,2.56243 -1.1333,16.55556 -1.06332,38.63067 0.062,19.56 0.0802,20.08246 0.27458,7.87989 0.11449,-7.188 0.24795,-12.66217 0.29657,-12.16482 0.17344,1.77418 2.47393,8.00551 4.49104,12.16482 4.98751,10.28434 12.3601,19.18177 21.43202,25.86472 6.61749,4.87486 12.09312,7.87923 16.1781,8.87662 1.01451,0.2477 4.04139,0.61805 6.72641,0.82299 2.73451,0.20872 44.78381,0.541 95.59698,0.75542 81.21387,0.34271 91.06741,0.44851 94.0785,1.01016 l 3.36337,0.62736 v 12.44482 12.44482 h -121.2734 -121.2734 l 0.0539,17.39341 c 0.0296,9.56638 0.15935,21.02585 0.28829,25.46549 l 0.23443,8.07208 8.84085,0.21404 c 17.62008,0.42658 231.55462,0.10116 235.76998,-0.35864 z"
         id="path6"
         transform="matrix(0.16431489,0,0,0.16431489,-23.84665,43.437745)" />
      <path
         style="fill:#181822;fill-opacity:1;stroke-width:0.384385"
         d="M 75.531609,504.8861 C 64.59607,500.88516 52.109649,493.80679 42.661575,486.25259 37.886713,482.43485 29.801158,474.35644 25.818187,469.42407 18.883645,460.8366 12.076066,449.15803 8.0795774,438.99305 4.287469,429.34792 1.2535873,416.34004 0.55487415,406.73062 0.18047965,401.58156 0.06270069,108.91888 0.43446474,107.53164 L 0.6662398,106.66678 H 36.94577 73.225301 v 90.65193 90.65193 l 20.468489,0.25468 c 11.25767,0.14007 24.05768,0.25485 28.44447,0.25506 l 7.97599,4e-4 v -39.39944 c 0,-21.66969 0.0432,-39.40447 0.0961,-39.41061 0.0529,-0.006 41.43668,-0.177 91.96406,-0.3797 50.52738,-0.2027 95.06797,-0.5388 98.97908,-0.74691 3.9232,-0.20874 8.14504,-0.64829 9.41743,-0.98046 8.18402,-2.13655 21.20484,-11.40872 28.75346,-20.47543 3.67105,-4.40934 6.35234,-8.53209 9.17993,-14.11508 5.29873,-10.46218 5.81671,-13.19773 5.82268,-30.75078 0.005,-14.74014 -0.16013,-15.90911 -3.19661,-22.62719 -1.81296,-4.0111 -4.69934,-9.43884 -6.31299,-11.87135 l -0.70122,-1.05705 h 73.63649 73.63648 l 0.22517,1.24925 c 0.12385,0.68709 0.17051,68.62229 0.10371,150.96712 l -0.12143,149.71787 -0.83246,4.80481 c -3.85362,22.24307 -11.4785,39.64096 -24.51357,55.93312 -3.9364,4.92001 -11.99157,12.97518 -16.91158,16.91159 -9.48842,7.5915 -22.51115,14.93817 -33.34438,18.81096 l -4.89472,1.74983 -175.18954,-0.0133 -175.189526,-0.0133 z M 360.55292,436.08199 c 32.62816,-0.34058 33.74718,-0.4065 38.69529,-2.2795 8.14119,-3.08168 21.73919,-14.15501 27.71334,-22.56793 4.52739,-6.37565 8.72515,-14.63367 10.28436,-20.23198 1.63971,-5.88727 2.02452,-30.61099 0.56367,-36.21543 -0.71,-2.72384 -4.29062,-10.2838 -7.23943,-15.28496 -8.91792,-15.12466 -23.46604,-27.82655 -35.2931,-30.81419 -9.15339,-2.31225 -16.29429,-2.48572 -114.38787,-2.77869 l -84.66075,-0.25285 v -11.66292 -11.66292 h 121.2734 121.2734 v -27.3483 -27.34829 l -110.03015,0.23746 c -62.11469,0.13405 -114.30767,0.40562 -119.85281,0.62361 -15.39629,0.60528 -21.18554,1.66171 -27.60565,5.03753 -4.90511,2.5792 -9.07592,5.62993 -13.63753,9.97513 -7.76241,7.39415 -12.85209,14.45768 -18.14161,25.1772 -2.77206,5.61774 -3.28033,6.95792 -3.62265,9.55215 -0.2202,1.66869 -0.45499,12.92324 -0.52525,25.1772 -0.0699,12.18778 -0.0579,18.44068 0.0267,13.89533 l 0.15372,-8.26428 0.74438,2.8582 c 0.98986,3.8008 3.94615,10.54408 6.59791,15.04981 5.78078,9.82238 12.92374,17.25939 22.97378,23.91951 7.82454,5.18529 11.02787,6.2643 20.1802,6.79749 3.38258,0.19705 46.53939,0.5442 95.904,0.77144 75.98655,0.34979 90.16657,0.49912 92.44454,0.97354 1.47988,0.3082 2.82042,0.56051 2.97898,0.56068 0.15856,1.8e-4 0.28829,5.62194 0.28829,12.49282 v 12.49251 h -121.2734 -121.2734 l 0.0521,16.24026 c 0.0286,8.93214 0.15838,20.39161 0.28829,25.46549 l 0.23619,9.22523 10.76278,0.20136 c 18.0904,0.33846 171.40522,0.32966 204.10831,-0.0117 z"
         id="path7"
         transform="matrix(0.16431489,0,0,0.16431489,-23.84665,43.437745)" />
      <path
         style="fill:#181822;fill-opacity:1;stroke-width:0.384385"
         d="M 75.339417,504.85839 C 64.294297,500.699 52.017524,493.7278 42.858903,486.4148 37.760557,482.34386 29.797281,474.37997 25.585792,469.14036 18.811209,460.71194 12.141365,449.25679 8.127983,439.15738 4.3817801,429.73031 1.2531521,416.33406 0.55487415,406.73062 0.18047965,401.58156 0.06270069,108.91888 0.43446474,107.53164 L 0.6662398,106.66678 H 36.94577 73.225301 v 90.71481 90.7148 l 8.936946,0.002 c 4.91532,0.001 17.715334,0.11548 28.444473,0.25411 l 19.50753,0.25207 v -39.41482 -39.41483 l 30.46249,-0.23141 c 16.75437,-0.12727 57.79225,-0.32999 91.19529,-0.45048 64.51828,-0.23272 74.22153,-0.4388 79.04624,-1.67879 6.1929,-1.59161 15.60442,-7.58117 23.32518,-14.84432 8.5137,-8.00907 16.46861,-21.09107 18.92855,-31.12837 1.81726,-7.41498 1.80416,-31.65869 -0.02,-37.07373 -1.0346,-3.07118 -4.78519,-10.87264 -7.03152,-14.62603 l -1.72535,-2.88288 73.4353,-0.0971 c 40.38943,-0.0534 73.53666,0.004 73.66054,0.12815 0.12385,0.12388 0.22521,67.97304 0.22521,150.77592 0,144.32526 -0.0292,150.72553 -0.70634,154.77892 -1.73869,10.40796 -3.97581,18.88213 -7.04804,26.69785 -3.91515,9.96007 -10.62171,21.49577 -17.44054,29.99891 -4.12514,5.14401 -12.1112,13.13641 -17.18488,17.19846 -9.09505,7.28158 -21.17415,14.17644 -32.19084,18.37477 l -4.99701,1.90428 -175.85603,0.0605 -175.856041,0.0605 z M 387.65205,435.71354 c 9.43995,-0.56288 12.45034,-1.56622 20.1802,-6.72586 8.24329,-5.50236 14.60209,-11.50211 19.69365,-18.58168 3.19051,-4.43622 8.72584,-15.50594 9.74423,-19.48668 1.77482,-6.93773 1.89782,-32.1466 0.18197,-37.28532 -1.21093,-3.62644 -5.89539,-12.6872 -8.9436,-17.29879 -5.87601,-8.88969 -13.14477,-16.49578 -20.43804,-21.38646 -8.56644,-5.74444 -12.57811,-7.00188 -25.6076,-8.02665 -7.02083,-0.55219 -72.98522,-1.09613 -136.16831,-1.12284 l -50.06612,-0.0212 v -11.72373 -11.72374 h 121.2734 121.2734 V 254.9781 227.62558 l -108.6848,0.25306 c -59.77664,0.13918 -113.70102,0.42358 -119.83195,0.632 -19.79637,0.67299 -24.68069,1.86889 -34.52897,8.4543 -9.83552,6.57688 -18.7692,17.15527 -25.47792,30.16845 -4.73351,9.18179 -4.50349,7.91769 -4.68245,25.73208 -0.16982,16.90473 -0.10297,17.59099 2.30654,23.6754 6.116,15.44392 16.23461,27.29605 30.83051,36.11239 4.29751,2.59582 7.09103,3.70781 11.25412,4.47984 3.8988,0.723 32.01348,1.07044 103.13309,1.27452 56.58673,0.16236 90.45401,0.5887 92.73282,1.16736 l 1.82583,0.46363 v 12.46137 12.46138 h -121.2734 -121.2734 l 0.0507,15.0871 c 0.0279,8.29791 0.15763,19.75738 0.28829,25.46549 l 0.23756,10.37839 13.45347,0.22971 c 21.77399,0.37178 221.41611,0.0149 228.51675,-0.40851 z"
         id="path8"
         transform="matrix(0.16431489,0,0,0.16431489,-23.84665,43.437745)" />
      <path
         style="fill:#181822;fill-opacity:1;stroke-width:0.730467"
         d="M 105.1872,511.22728 C 75.144528,507.63039 53.173714,497.44024 33.895291,478.16183 16.058594,460.32512 4.3991361,436.73687 1.1197004,411.85351 0.4903345,407.07808 0.33610918,365.86908 0.52422107,252.74146 L 0.77808101,100.07393 2.4354617,92.769263 C 13.148141,45.554675 46.053287,12.775639 93.134497,2.4178345 L 100.8044,0.73046664 h 154.49369 c 169.90109,0 158.01461,-0.29598925 173.97518,4.33221426 37.86613,10.9803191 68.15825,41.9536231 78.27647,80.0366831 3.96526,14.924466 3.77691,6.327477 3.77691,172.390126 v 154.4937 l -1.64991,7.45063 c -6.85547,30.95775 -23.79495,56.28119 -48.79271,72.942 -8.43817,5.62398 -22.89248,12.3829 -31.18155,14.5807 -17.37525,4.60693 -3.78459,4.2559 -170.38682,4.4009 -83.56539,0.0727 -152.92319,0.0142 -154.12846,-0.13014 z m 289.59336,-76.22393 c 7.21964,-1.55995 15.28506,-6.61238 24.2911,-15.21669 6.52866,-6.23745 11.02077,-12.60771 15.24076,-21.61294 3.68667,-7.86716 4.59813,-14.62048 4.19933,-31.11423 l -0.29143,-12.0527 -3.33685,-7.00235 c -6.71804,-14.09774 -16.53718,-26.05117 -27.23311,-33.1525 -7.57731,-5.03079 -12.67494,-6.69264 -23.45617,-7.64682 -5.13086,-0.45411 -45.72679,-0.97371 -98.39912,-1.25944 l -89.66478,-0.48642 v -11.56695 -11.56695 h 121.25747 121.25746 v -27.3925 -27.3925 l -46.56725,0.0707 c -25.61199,0.0389 -79.93131,0.33521 -120.70961,0.65852 -79.01955,0.62652 -79.7805,0.66354 -87.95331,4.27876 -12.45571,5.50976 -24.82927,18.61277 -33.55479,35.53294 l -3.76693,7.30466 v 18.6269 18.6269 l 2.3128,5.31898 c 3.35384,7.71315 8.58889,15.7566 13.96259,21.45301 7.63718,8.09582 18.93682,15.7479 25.72644,17.42188 2.25217,0.55527 33.41498,1.01156 98.97823,1.44926 52.63012,0.35135 96.75944,0.86737 98.06515,1.14671 l 2.37401,0.50788 v 12.69186 12.69185 H 266.25509 144.99763 l 0.002,11.50485 c 0.001,6.32767 0.21702,17.6557 0.47976,25.17341 l 0.4777,13.66856 5.91181,0.28062 c 3.25151,0.15433 58.34107,0.19833 122.42125,0.0978 86.03591,-0.13503 117.55065,-0.40783 120.49034,-1.043 z M 130.3883,248.72389 v -39.4452 l 75.78591,-0.0618 c 41.68225,-0.034 86.46899,-0.2992 99.52608,-0.58932 23.09461,-0.51316 23.86131,-0.57747 28.19514,-2.36528 16.63289,-6.86146 33.05953,-25.14492 38.63678,-43.00417 1.61006,-5.15568 2.3968,-28.89425 1.17409,-35.42642 -0.89437,-4.77812 -6.27365,-16.36015 -10.91372,-23.49818 C 358.96707,98.448532 350.32389,89.393244 344.70562,85.384129 338.64255,81.057604 331.85479,78.01692 326.15336,77.073347 316.319,75.445772 280.31261,74.916608 177.93319,74.895044 L 72.445329,74.872831 72.927386,98.43038 c 0.265138,12.95665 0.482612,60.94831 0.483284,106.64813 l 0.0012,83.09058 h 28.4882 28.4882 z"
         id="path9"
         transform="matrix(0.16431489,0,0,0.16431489,-23.84665,43.437745)" />
    </g>
  </g>
</svg>
