<?xml version="1.0" encoding="UTF-8" standalone="no"?>
<svg
   class="patco-logo-svg"
   viewBox="0 80 396 35"
   aria-label="PATCO"
   version="1.1"
   id="svg5"
   sodipodi:docname="schedule.svg"
   width="396"
   height="35"
   inkscape:version="1.4.3 (0d15f75, 2025-12-25)"
   xmlns:inkscape="http://www.inkscape.org/namespaces/inkscape"
   xmlns:sodipodi="http://sodipodi.sourceforge.net/DTD/sodipodi-0.dtd"
   xmlns="http://www.w3.org/2000/svg"
   xmlns:svg="http://www.w3.org/2000/svg">
  <defs
     id="defs5" />
  <sodipodi:namedview
     id="namedview5"
     pagecolor="#ffffff"
     bordercolor="#000000"
     borderopacity="0.25"
     inkscape:showpageshadow="2"
     inkscape:pageopacity="0.0"
     inkscape:pagecheckerboard="true"
     inkscape:deskcolor="#d1d1d1"
     inkscape:zoom="7.3652383"
     inkscape:cx="45.687592"
     inkscape:cy="21.52001"
     inkscape:window-width="1680"
     inkscape:window-height="878"
     inkscape:window-x="0"
     inkscape:window-y="31"
     inkscape:window-maximized="0"
     inkscape:current-layer="svg5" />
  <!-- T -->
  <!-- P -->
  <path
     d="m 48.243747,80.869968 v 17.25345 L 39.69734,97.2191 l -0.545261,5.15308 v 0 0 l -15.858713,-0.0581 c -15.8609919,-0.0566 -15.8595039,0.16653 -17.4665379,-0.75305 -2.52998,-1.44768 -4.179914,-3.278622 -5.27547495,-5.862282 -0.485247,-1.14435 -0.544701,-1.73996 -0.55047000184,-4.07099 -0.006428998,-2.59777 -0.002462998,-2.60033 0.86525500184,-4.35212 1.01943395,-2.05811 2.80431495,-4.11392 4.42313495,-5.08177 2.24053,-1.33953 1.541647,-1.32393 23.2666539,-1.32391 z m 0,8.90116 H 8.3645091 v 4.13256 l 39.8792379,4.21973 z"
     fill="#c30032"
     id="path2"
     sodipodi:nodetypes="ccccccccssccccccccc" />
  <path
     d="M 0.06766796,93.571921 0,110.95028 l 0.101835,4.11685 8.989833,0.13191 v 0 0 l 15.858713,-0.0581 c 15.860992,-0.0566 15.859504,0.16653 17.466538,-0.75305 2.52998,-1.44768 4.179914,-3.27862 5.275475,-5.86228 0.485247,-1.14435 0.544701,-1.73996 0.55047,-4.07099 0.0064,-2.59777 0.0025,-2.60033 -0.865255,-4.35212 -1.019434,-2.058108 -2.804315,-4.113928 -4.423135,-5.081778 -2.24053,-1.33953 -1.541647,-1.32393 -23.266654,-1.32391 z m 0,0 39.81157004,9.026069 v 4.13256 L 0.01703519,106.57533 Z"
     fill="#c30032"
     id="path2-2"
     sodipodi:nodetypes="ccccccccssccccccccc" />
  <!-- A -->
  <path
     d="m 277.09302,114.88909 c -15.25942,0 -15.2945,-0.003 -16.76271,-0.46491 -3.12107,-1.02351 -5.55366,-3.4078 -7.23199,-6.17301 -0.59465,-1.21225 -0.59325,-1.21392 -0.65217,-14.38648 l -0.0581,-13.17255 h 8.89793 v 10.95129 h 30.7876 l 0.0325,-10.95464 h 9.05577 l -0.0418,12.87886 c -0.059,13.08027 -0.0574,13.08027 -0.82006,14.61894 -1.52034,3.06736 -4.15141,5.53504 -6.75416,6.3409 -1.0598,0.32815 -2.50382,0.36163 -16.45277,0.3616 z m 14.98054,-8.78169 V 91.64343 h -30.7876 l 0.10332,14.36066 z"
     fill="#c30032"
     id="path3"
     sodipodi:nodetypes="cccccccccccsscccccc" />
  <!-- C -->
  <path
     d="m 61.952235,114.63684 c -3.42349,-0.4065 -5.1752,-1.22399 -7.45773,-3.48046 -1.83888,-1.81788 -2.62709,-3.16841 -2.98608,-5.11644 -0.13853,-0.75173 -0.19633,-4.21675 -0.15681,-9.401593 0.06257,-8.21106 0.06257,-8.21106 0.66361,-9.45084 0.39529,-0.81537 1.10978,-1.7349 2.08724,-2.68617 2.44367,-2.37821 4.93941,-3.63946 7.94765,-4.01645 1.88242,-0.23591 31.53574,-0.31411 32.91095,-0.0868 0.77488,0.12809 0.77488,0.12809 0.77488,4.43905 v 4.31097 l -34.40361,0.10569 -0.10794,16.840193 h 34.51155 v 4.2071 c 0,4.20709 0,4.20709 -1.08481,4.33739 -1.10917,0.13324 -31.57595,0.1317 -32.6989,-0.002 z"
     fill="#c30032"
     id="path4" />
  <!-- O -->
  <path
     d="m 100.02293,80.285318 v 34.704332 h 8.89792 v -13.02563 h 30.7876 v 13.02563 h 9.05577 v -34.704332 h -9.05577 v 12.336617 h -30.7876 v -12.336617 z"
     fill="#c30032"
     id="path3-3" />
  <path
     d="m 162.51923,114.70253 c -3.42349,-0.4065 -5.1752,-1.22399 -7.45773,-3.48046 -1.83888,-1.81788 -2.62709,-3.16841 -2.98608,-5.11644 -0.13853,-0.75173 -0.19633,-4.21675 -0.15681,-9.401594 0.0626,-8.211063 0.0626,-8.211063 0.66361,-9.450843 0.39529,-0.81537 1.10978,-1.7349 2.08724,-2.68617 2.44367,-2.37821 4.93941,-3.63946 7.94765,-4.01645 1.88242,-0.23591 31.53574,-0.31411 32.91095,-0.0868 0.77488,0.12809 0.77488,0.12809 0.77488,4.43905 v 4.31097 l -34.40361,0.10569 -0.0135,2.105024 -0.0718,2.921614 34.57494,0.06355 -0.0135,3.738204 -0.0135,2.571655 -34.60193,-0.16977 0.0448,3.5049 -0.0135,2.10502 h 34.51155 v 4.2071 c 0,4.20709 0,4.20709 -1.08481,4.33739 -1.10917,0.13324 -31.57595,0.1317 -32.6989,-0.002 z"
     fill="#c30032"
     id="path4-1"
     sodipodi:nodetypes="csssssssscccccccccccsscc" />
  <path
     d="m 361.94118,114.9756 c -3.42349,-0.4065 -5.1752,-1.22399 -7.45773,-3.48046 -1.83888,-1.81788 -2.62709,-3.16841 -2.98608,-5.11644 -0.13853,-0.75173 -0.19633,-4.21675 -0.15681,-9.401588 0.0626,-8.21106 0.0626,-8.21106 0.66361,-9.45084 0.39529,-0.81537 1.10978,-1.7349 2.08724,-2.68617 2.44367,-2.37821 4.93941,-3.63946 7.94765,-4.01645 1.88242,-0.23591 31.53574,-0.31411 32.91095,-0.0868 0.77488,0.12809 0.77488,0.12809 0.77488,4.43905 v 4.31097 l -34.40361,0.10569 -0.0135,2.10502 -0.0718,2.92161 34.57494,0.0636 -0.0135,3.73821 -0.0135,2.571648 -34.60193,-0.16977 0.0448,3.5049 -0.0135,2.10502 h 34.51155 v 4.2071 c 0,4.20709 0,4.20709 -1.08481,4.33739 -1.10917,0.13324 -31.57595,0.1317 -32.6989,-0.002 z"
     fill="#c30032"
     id="path4-1-4"
     sodipodi:nodetypes="csssssssscccccccccccsscc" />
  <path
     d="m 223.89932,80.449804 c -14.38403,0.0658 -23.62569,0.06608 -23.62569,0.06608 0,0 0.0332,9.787352 -0.0138,17.038859 -0.0487,7.506447 0.0416,17.067697 0.0416,17.067697 0,0 30.9512,0.35508 40.20921,0.0451 3.70241,-0.28714 7.55473,-4.99864 8.19708,-8.33112 0.16305,-0.84605 0.21927,-3.76613 0.17434,-9.194957 -0.0743,-8.970712 -0.0832,-9.009122 -1.77572,-11.493702 -1.88492,-2.76709 -4.54453,-4.62703 -7.22553,-5.04302 -5.31987,-0.25305 -10.65526,-0.17631 -15.98139,-0.15497 z m -14.85789,8.83983 30.68429,0.10331 0.10981,16.840196 h -30.7941 z"
     fill="#c30032"
     id="path5"
     sodipodi:nodetypes="ccsccssscccccccc" />
  <path
     d="m 315.37706,114.87597 c -3.42349,-0.4065 -5.1752,-1.22399 -7.45772,-3.48046 -1.83888,-1.81788 -2.62709,-3.16841 -2.98608,-5.11644 -0.13853,-0.75173 -0.19633,-4.21675 -0.15681,-9.401587 -0.17235,-4.675485 -0.0557,-16.238519 -0.0557,-16.238519 0,0 5.49025,-0.08506 10.09137,0 0.004,2.02347 -0.0248,5.60634 -0.055,8.85397 v 0 l -0.10794,16.840186 h 34.51155 v 4.2071 c 0,4.20709 0,4.20709 -1.08481,4.33739 -1.10917,0.13324 -31.57595,0.1317 -32.6989,-0.002 z"
     fill="#c30032"
     id="path4-8"
     sodipodi:nodetypes="csssccccccsscc" />
</svg>
